<?xml version="1.0" encoding="UTF-8"?><svg id="b" xmlns="http://www.w3.org/2000/svg" width="300" height="375.89" xmlns:xlink="http://www.w3.org/1999/xlink" viewBox="0 0 300 375.89"><defs><style>.f,.g{fill:#184e84;}.h{fill:#fff;}.h,.g{fill-rule:evenodd;}.i{fill:#efd395;}.j{clip-path:url(#e);}.k{fill:none;}</style><clipPath id="e"><polygon class="k" points="49.23 115.66 150.14 7.81 250.77 115.66 150.14 223.51 49.23 115.66"/></clipPath></defs><g id="c"><polygon class="h" points="42 115.66 150.14 0 258 115.66 150.14 231.31 42 115.66"/><polygon id="d" class="g" points="49.23 115.66 150.14 7.81 250.77 115.66 150.14 223.51 49.23 115.66"/><g class="j"><path class="i" d="m150.14,220.91l4.05-105.53h-2.89l-1.16,105.53Zm6.65-105.53l-6.94,105.53,9.83-105.53h-2.89Zm-6.65,105.53l-6.65-105.53h-3.18l9.83,105.53h0Zm-4.34-105.53l4.05,105.53-1.16-105.53h-2.89Zm4.34,105.53l-12.43-105.53,12.43-104.38,12.43,104.38-12.43,105.53h0Zm0-211.37l-82.69,105.83h-2.02L150.14,9.54l84.43,105.83h-2.31L150.14,9.54l71.42,105.83h-2.03L150.14,9.54l59.56,105.83h-2.03L150.14,9.54l48,105.83h-2.03L150.14,9.54l36.14,105.83h-2.03L150.14,9.54l24.57,105.83h-2.03l-22.55-105.83-22.27,105.83h-2.31l24.58-105.83-34.12,105.83h-2.03L150.14,9.54l-45.97,105.83h-2.03L150.14,9.54l-57.54,105.83h-2.03L150.14,9.54l-69.39,105.83h-2.02S150.14,9.54,150.14,9.54Z"/></g><path class="f" d="m86.11,374.35h-28.7v-4.63c5.55,0,6.17-1.85,6.17-6.17v-60.49c0-10.49-10.19-15.12-20.37-15.12s-20.37,4.63-20.37,15.12v26.54c1.23-3.09,6.17-8.33,8.95-10.49,3.09-2.47,6.79-4.63,11.73-4.63,6.79,0,10.19,3.71,10.19,8.03,0,3.71-3.09,6.17-6.17,6.79-5.25.93-6.17-4.32-10.19-4.32-8.03,0-14.81,13.27-14.81,18.52v20.68c0,4.32.62,6.17,6.17,6.17v4.63H0v-4.63c5.55,0,6.17-1.85,6.17-6.17v-59.88c0-13.89,17.59-21.6,36.73-21.6s36.73,7.41,36.73,21.6v59.57c0,4.32.62,6.17,6.17,6.17v4.32h.31Zm213.89-6.17c0,4.01-3.09,7.41-6.79,7.41-4.01,0-7.41-3.09-7.41-7.41,0-4.01,3.09-6.79,7.71-6.79,3.09,0,6.48,3.39,6.48,6.79h0Zm-105.86,7.41c-7.1,0-10.8-4.01-10.8-8.33,0-3.71,3.09-6.17,6.48-7.1,4.32-.62,5.87,2.47,8.33,4.01l-.31-46.92c0-5.25,9.88-4.63,9.26-8.03-.62-2.78-10.19-2.47-10.19-2.47,0-15.12,18.83-24.07,37.34-24.07s36.73,7.1,36.73,24.07v56.79c0,4.32.62,6.17,6.17,6.17v4.63h-28.7v-4.63c5.55,0,6.17-1.85,6.17-6.17v-59.26c0-9.57-7.1-16.36-20.37-16.36s-20.37,6.79-20.37,16.36v54.01c-1.54,18.52-19.75,17.28-19.75,17.28h0Zm-89.51-82.71c-2.47,1.23-4.01,4.63-8.33,4.01-3.39-.62-6.48-3.09-6.48-6.79,0-4.01,3.39-7.71,9.88-8.03,0,0,21.6-2.78,20.99,19.44l.31,53.7c0,10.49,9.88,15.12,20.37,15.12s20.37-4.63,20.37-15.12v-90.12c0-4.32-.62-6.17-6.17-6.17v-4.32h28.7v4.63c-5.55,0-6.17,1.85-6.17,6.17v88.89c0,13.89-16.97,21.6-36.73,21.6s-36.73-7.41-36.73-21.6v-61.42h0Z"/></g></svg>